<svg width="315" height="142" viewBox="0 0 315 142" fill="none" xmlns="http://www.w3.org/2000/svg">
<rect width="315" height="142" rx="16" fill="#F7F7F7"/>
<rect x="0.5" y="0.5" width="314" height="141" rx="15.5" stroke="black" stroke-opacity="0.1" stroke-linecap="round" stroke-dasharray="21 21"/>
<g opacity="0.5">
<path d="M172.751 40.2507C171.2 40.2507 169.777 39.3611 169.065 37.9886L167.235 34.3032C166.066 31.9902 163.016 30.084 160.424 30.084H154.603C151.985 30.084 148.935 31.9902 147.766 34.3032L145.936 37.9886C145.224 39.3611 143.801 40.2507 142.251 40.2507C136.735 40.2507 132.364 44.9019 132.72 50.3919L134.041 71.3861C134.346 76.6219 137.167 80.9173 144.182 80.9173H170.819C177.834 80.9173 180.63 76.6219 180.96 71.3861L182.282 50.3919C182.638 44.9019 178.266 40.2507 172.751 40.2507ZM153.688 43.4277H161.313C162.355 43.4277 163.219 44.2919 163.219 45.334C163.219 46.3761 162.355 47.2402 161.313 47.2402H153.688C152.646 47.2402 151.782 46.3761 151.782 45.334C151.782 44.2919 152.646 43.4277 153.688 43.4277ZM157.501 71.0556C152.773 71.0556 148.91 67.2177 148.91 62.4648C148.91 57.7119 152.748 53.874 157.501 53.874C162.254 53.874 166.092 57.7119 166.092 62.4648C166.092 67.2177 162.228 71.0556 157.501 71.0556Z" fill="#545878"/>
<path d="M118.6 108.922V112.824H116.622V108.922H112.975V106.971H116.622V103.13H118.6V106.971H122.256V108.922H118.6ZM136.31 113L135.229 109.722H130.562L129.48 113H127.143L131.643 100.317H134.2L138.7 113H136.31ZM132.864 102.559L131.089 107.973H134.692L132.926 102.559H132.864ZM143.024 113.149C140.678 113.149 139.157 111.295 139.157 108.333C139.157 105.389 140.678 103.525 143.024 103.525C144.36 103.525 145.415 104.22 145.907 105.248H145.96V100.317H148.148V113H146.004V111.409H145.969C145.459 112.455 144.387 113.149 143.024 113.149ZM143.684 105.327C142.277 105.327 141.398 106.496 141.398 108.342C141.398 110.196 142.269 111.356 143.684 111.356C145.063 111.356 145.969 110.188 145.969 108.342C145.969 106.514 145.063 105.327 143.684 105.327ZM153.466 113.149C151.119 113.149 149.599 111.295 149.599 108.333C149.599 105.389 151.119 103.525 153.466 103.525C154.802 103.525 155.856 104.22 156.349 105.248H156.401V100.317H158.59V113H156.445V111.409H156.41C155.9 112.455 154.828 113.149 153.466 113.149ZM154.125 105.327C152.719 105.327 151.84 106.496 151.84 108.342C151.84 110.196 152.71 111.356 154.125 111.356C155.505 111.356 156.41 110.188 156.41 108.342C156.41 106.514 155.505 105.327 154.125 105.327ZM172.274 111.084V113H164.25V100.317H166.518V111.084H172.274ZM177.627 113.185C174.894 113.185 173.118 111.365 173.118 108.342C173.118 105.336 174.911 103.49 177.627 103.49C180.343 103.49 182.136 105.327 182.136 108.342C182.136 111.365 180.36 113.185 177.627 113.185ZM177.627 111.453C179.016 111.453 179.912 110.328 179.912 108.342C179.912 106.364 179.016 105.23 177.627 105.23C176.247 105.23 175.342 106.364 175.342 108.342C175.342 110.328 176.238 111.453 177.627 111.453ZM187.655 111.269C189.053 111.269 189.958 110.135 189.958 108.315C189.958 106.505 189.053 105.327 187.655 105.327C186.275 105.327 185.396 106.487 185.396 108.315C185.396 110.161 186.275 111.269 187.655 111.269ZM187.646 116.516C185.344 116.516 183.691 115.338 183.472 113.703H185.643C185.88 114.415 186.68 114.898 187.717 114.898C189.141 114.898 189.958 114.099 189.958 112.912V111.339H189.905C189.422 112.341 188.323 113.009 186.987 113.009C184.685 113.009 183.155 111.207 183.155 108.307C183.155 105.362 184.649 103.525 187.031 103.525C188.358 103.525 189.431 104.211 189.967 105.283H190.002V103.684H192.146V112.851C192.146 115.074 190.362 116.516 187.646 116.516ZM198.053 113.185C195.319 113.185 193.544 111.365 193.544 108.342C193.544 105.336 195.337 103.49 198.053 103.49C200.769 103.49 202.562 105.327 202.562 108.342C202.562 111.365 200.786 113.185 198.053 113.185ZM198.053 111.453C199.441 111.453 200.338 110.328 200.338 108.342C200.338 106.364 199.441 105.23 198.053 105.23C196.673 105.23 195.768 106.364 195.768 108.342C195.768 110.328 196.664 111.453 198.053 111.453Z" fill="#545878"/>
</g>
</svg>
