<svg width="25" height="24" viewBox="0 0 25 24" fill="none" xmlns="http://www.w3.org/2000/svg">
<path d="M20.4602 8.96039C19.7902 8.22039 18.7802 7.79039 17.3802 7.64039V6.88039C17.3802 5.51039 16.8002 4.19039 15.7802 3.27039C14.7502 2.33039 13.4102 1.89039 12.0202 2.02039C9.63023 2.25039 7.62023 4.56039 7.62023 7.06039V7.64039C6.22023 7.79039 5.21023 8.22039 4.54023 8.96039C3.57023 10.0404 3.60023 11.4804 3.71023 12.4804L4.41023 18.0504C4.62023 20.0004 5.41023 22.0004 9.71023 22.0004H15.2902C19.5902 22.0004 20.3802 20.0004 20.5902 18.0604L21.2902 12.4704C21.4002 11.4804 21.4202 10.0404 20.4602 8.96039ZM12.1602 3.41039C13.1602 3.32039 14.1102 3.63039 14.8502 4.30039C15.5802 4.96039 15.9902 5.90039 15.9902 6.88039V7.58039H9.01023V7.06039C9.01023 5.28039 10.4802 3.57039 12.1602 3.41039ZM8.92023 13.1504H8.91023C8.36023 13.1504 7.91023 12.7004 7.91023 12.1504C7.91023 11.6004 8.36023 11.1504 8.91023 11.1504C9.47023 11.1504 9.92023 11.6004 9.92023 12.1504C9.92023 12.7004 9.47023 13.1504 8.92023 13.1504ZM15.9202 13.1504H15.9102C15.3602 13.1504 14.9102 12.7004 14.9102 12.1504C14.9102 11.6004 15.3602 11.1504 15.9102 11.1504C16.4702 11.1504 16.9202 11.6004 16.9202 12.1504C16.9202 12.7004 16.4702 13.1504 15.9202 13.1504Z" fill="#545878"/>
</svg>
