<svg width="25" height="24" viewBox="0 0 25 24" fill="none" xmlns="http://www.w3.org/2000/svg">
<path d="M20.7102 7.81945L13.0102 12.2795C12.7002 12.4595 12.3102 12.4595 11.9902 12.2795L4.29021 7.81945C3.74021 7.49945 3.60021 6.74945 4.02021 6.27945C4.31021 5.94945 4.64021 5.67945 4.99021 5.48945L10.4102 2.48945C11.5702 1.83945 13.4502 1.83945 14.6102 2.48945L20.0302 5.48945C20.3802 5.67945 20.7102 5.95945 21.0002 6.27945C21.4002 6.74945 21.2602 7.49945 20.7102 7.81945Z" fill="#E0976D"/>
<path d="M11.9305 14.1409V20.9609C11.9305 21.7209 11.1605 22.2209 10.4805 21.8909C8.42047 20.8809 4.95047 18.9909 4.95047 18.9909C3.73047 18.3009 2.73047 16.5609 2.73047 15.1309V9.97086C2.73047 9.18086 3.56047 8.68086 4.24047 9.07086L11.4305 13.2409C11.7305 13.4309 11.9305 13.7709 11.9305 14.1409Z" fill="#E0976D"/>
<path d="M13.0703 14.1409V20.9609C13.0703 21.7209 13.8403 22.2209 14.5203 21.8909C16.5803 20.8809 20.0503 18.9909 20.0503 18.9909C21.2703 18.3009 22.2703 16.5609 22.2703 15.1309V9.97086C22.2703 9.18086 21.4403 8.68086 20.7603 9.07086L13.5703 13.2409C13.2703 13.4309 13.0703 13.7709 13.0703 14.1409Z" fill="#E0976D"/>
</svg>
