<svg width="24" height="24" viewBox="0 0 24 24" fill="none" xmlns="http://www.w3.org/2000/svg">
<path d="M21 22.75H3C2.59 22.75 2.25 22.41 2.25 22C2.25 21.59 2.59 21.25 3 21.25H21C21.41 21.25 21.75 21.59 21.75 22C21.75 22.41 21.41 22.75 21 22.75Z" fill="#E0976D"/>
<path d="M5.6 8.38086H4C3.45 8.38086 3 8.83086 3 9.38086V18.0009C3 18.5509 3.45 19.0009 4 19.0009H5.6C6.15 19.0009 6.6 18.5509 6.6 18.0009V9.38086C6.6 8.82086 6.15 8.38086 5.6 8.38086Z" fill="#E0976D"/>
<path d="M12.8002 5.18945H11.2002C10.6502 5.18945 10.2002 5.63945 10.2002 6.18945V17.9995C10.2002 18.5495 10.6502 18.9995 11.2002 18.9995H12.8002C13.3502 18.9995 13.8002 18.5495 13.8002 17.9995V6.18945C13.8002 5.63945 13.3502 5.18945 12.8002 5.18945Z" fill="#E0976D"/>
<path d="M20.0004 2H18.4004C17.8504 2 17.4004 2.45 17.4004 3V18C17.4004 18.55 17.8504 19 18.4004 19H20.0004C20.5504 19 21.0004 18.55 21.0004 18V3C21.0004 2.45 20.5504 2 20.0004 2Z" fill="#E0976D"/>
</svg>
