<svg width="30" height="30" viewBox="0 0 30 30" fill="none" xmlns="http://www.w3.org/2000/svg">
<rect width="30" height="30" rx="10" fill="#545878"/>
<path d="M20.3336 19.8394H14.2869C13.9869 19.8394 13.7402 19.5928 13.7402 19.2928C13.7402 18.9928 13.9869 18.7461 14.2869 18.7461H20.3336C20.6336 18.7461 20.8802 18.9928 20.8802 19.2928C20.8802 19.5994 20.6336 19.8394 20.3336 19.8394Z" fill="white"/>
<path d="M20.3336 15.6461H14.2869C13.9869 15.6461 13.7402 15.3994 13.7402 15.0994C13.7402 14.7994 13.9869 14.5527 14.2869 14.5527H20.3336C20.6336 14.5527 20.8802 14.7994 20.8802 15.0994C20.8802 15.3994 20.6336 15.6461 20.3336 15.6461Z" fill="white"/>
<path d="M20.3336 11.4468H14.2869C13.9869 11.4468 13.7402 11.2002 13.7402 10.9002C13.7402 10.6002 13.9869 10.3535 14.2869 10.3535H20.3336C20.6336 10.3535 20.8802 10.6002 20.8802 10.9002C20.8802 11.2002 20.6336 11.4468 20.3336 11.4468Z" fill="white"/>
<path d="M10.2735 12.3539C10.1268 12.3539 9.98678 12.2939 9.88678 12.1939L9.28012 11.5873C9.06678 11.3739 9.06678 11.0273 9.28012 10.8139C9.49345 10.6006 9.84012 10.6006 10.0535 10.8139L10.2735 11.0339L11.7001 9.60727C11.9135 9.39393 12.2601 9.39393 12.4735 9.60727C12.6868 9.8206 12.6868 10.1673 12.4735 10.3806L10.6601 12.1939C10.5535 12.2939 10.4201 12.3539 10.2735 12.3539Z" fill="white"/>
<path d="M10.2735 16.5532C10.1335 16.5532 9.99345 16.4998 9.88678 16.3932L9.28012 15.7865C9.06678 15.5732 9.06678 15.2265 9.28012 15.0132C9.49345 14.7998 9.84012 14.7998 10.0535 15.0132L10.2735 15.2332L11.7001 13.8065C11.9135 13.5932 12.2601 13.5932 12.4735 13.8065C12.6868 14.0198 12.6868 14.3665 12.4735 14.5798L10.6601 16.3932C10.5535 16.4998 10.4135 16.5532 10.2735 16.5532Z" fill="white"/>
<path d="M10.2735 20.5532C10.1335 20.5532 9.99345 20.4998 9.88678 20.3932L9.28012 19.7865C9.06678 19.5732 9.06678 19.2265 9.28012 19.0132C9.49345 18.7998 9.84012 18.7998 10.0535 19.0132L10.2735 19.2332L11.7001 17.8065C11.9135 17.5932 12.2601 17.5932 12.4735 17.8065C12.6868 18.0198 12.6868 18.3665 12.4735 18.5798L10.6601 20.3932C10.5535 20.4998 10.4135 20.5532 10.2735 20.5532Z" fill="white"/>
</svg>
