<svg width="30" height="31" viewBox="0 0 30 31" fill="none" xmlns="http://www.w3.org/2000/svg">
<rect y="0.5" width="30" height="30" rx="10" fill="#FB7C7C"/>
<path d="M21.0471 10.9873C19.9738 10.8807 18.9004 10.8007 17.8204 10.7407V10.734L17.6738 9.86732C17.5738 9.25398 17.4271 8.33398 15.8671 8.33398H14.1204C12.5671 8.33398 12.4204 9.21398 12.3138 9.86065L12.1738 10.714C11.5538 10.754 10.9338 10.794 10.3138 10.854L8.95376 10.9873C8.67376 11.014 8.47376 11.2607 8.50043 11.534C8.5271 11.8073 8.7671 12.0073 9.0471 11.9807L10.4071 11.8473C13.9004 11.5007 17.4204 11.634 20.9538 11.9873C20.9738 11.9873 20.9871 11.9873 21.0071 11.9873C21.2604 11.9873 21.4804 11.794 21.5071 11.534C21.5271 11.2607 21.3271 11.014 21.0471 10.9873Z" fill="white"/>
<path d="M19.8202 12.926C19.6602 12.7593 19.4402 12.666 19.2135 12.666H10.7868C10.5602 12.666 10.3335 12.7593 10.1802 12.926C10.0268 13.0927 9.94016 13.3193 9.95349 13.5527L10.3668 20.3927C10.4402 21.406 10.5335 22.6727 12.8602 22.6727H17.1402C19.4668 22.6727 19.5602 21.4127 19.6335 20.3927L20.0468 13.5593C20.0602 13.3193 19.9735 13.0927 19.8202 12.926ZM16.1068 19.3327H13.8868C13.6135 19.3327 13.3868 19.106 13.3868 18.8327C13.3868 18.5593 13.6135 18.3327 13.8868 18.3327H16.1068C16.3802 18.3327 16.6068 18.5593 16.6068 18.8327C16.6068 19.106 16.3802 19.3327 16.1068 19.3327ZM16.6668 16.666H13.3335C13.0602 16.666 12.8335 16.4393 12.8335 16.166C12.8335 15.8927 13.0602 15.666 13.3335 15.666H16.6668C16.9402 15.666 17.1668 15.8927 17.1668 16.166C17.1668 16.4393 16.9402 16.666 16.6668 16.666Z" fill="white"/>
</svg>
