<svg width="20" height="20" viewBox="0 0 20 20" fill="none" xmlns="http://www.w3.org/2000/svg">
    <path
        d="M18.0402 4.81969L12.2802 0.789694C10.7102 -0.310306 8.30023 -0.250306 6.79023 0.919694L1.78023 4.82969C0.780234 5.60969 -0.00976562 7.20969 -0.00976562 8.46969V15.3697C-0.00976562 17.9197 2.06023 19.9997 4.61023 19.9997H15.3902C17.9402 19.9997 20.0102 17.9297 20.0102 15.3797V8.59969C20.0102 7.24969 19.1402 5.58969 18.0402 4.81969ZM10.7502 15.9997C10.7502 16.4097 10.4102 16.7497 10.0002 16.7497C9.59023 16.7497 9.25023 16.4097 9.25023 15.9997V12.9997C9.25023 12.5897 9.59023 12.2497 10.0002 12.2497C10.4102 12.2497 10.7502 12.5897 10.7502 12.9997V15.9997Z"
        fill="#E0976D" />
</svg>