<svg width="24" height="24" viewBox="0 0 24 24" fill="none" xmlns="http://www.w3.org/2000/svg">
<path d="M21.5599 10.7405L20.1999 9.16055C19.9399 8.86055 19.7299 8.30055 19.7299 7.90055V6.20055C19.7299 5.14055 18.8599 4.27055 17.7999 4.27055H16.0999C15.7099 4.27055 15.1399 4.06055 14.8399 3.80055L13.2599 2.44055C12.5699 1.85055 11.4399 1.85055 10.7399 2.44055L9.16988 3.81055C8.86988 4.06055 8.29988 4.27055 7.90988 4.27055H6.17988C5.11988 4.27055 4.24988 5.14055 4.24988 6.20055V7.91055C4.24988 8.30055 4.03988 8.86055 3.78988 9.16055L2.43988 10.7505C1.85988 11.4405 1.85988 12.5605 2.43988 13.2505L3.78988 14.8405C4.03988 15.1405 4.24988 15.7005 4.24988 16.0905V17.8005C4.24988 18.8605 5.11988 19.7305 6.17988 19.7305H7.90988C8.29988 19.7305 8.86988 19.9405 9.16988 20.2005L10.7499 21.5605C11.4399 22.1505 12.5699 22.1505 13.2699 21.5605L14.8499 20.2005C15.1499 19.9405 15.7099 19.7305 16.1099 19.7305H17.8099C18.8699 19.7305 19.7399 18.8605 19.7399 17.8005V16.1005C19.7399 15.7105 19.9499 15.1405 20.2099 14.8405L21.5699 13.2605C22.1499 12.5705 22.1499 11.4305 21.5599 10.7405ZM16.6799 12.0005L15.5099 15.5605C15.3599 16.1505 14.7299 16.6305 14.0899 16.6305H12.2399C11.9199 16.6305 11.4699 16.5205 11.2699 16.3205L9.79988 15.1705C9.76988 15.8105 9.47988 16.0805 8.76988 16.0805H8.28988C7.54988 16.0805 7.24988 15.7905 7.24988 15.0905V10.3105C7.24988 9.61055 7.54988 9.32055 8.28988 9.32055H8.77988C9.51988 9.32055 9.81988 9.61055 9.81988 10.3105V10.6705L11.7599 7.79055C11.9599 7.48055 12.4699 7.26055 12.8999 7.43055C13.3699 7.59055 13.6699 8.11055 13.5699 8.57055L13.3299 10.1305C13.3099 10.2705 13.3399 10.4005 13.4299 10.5005C13.5099 10.5905 13.6299 10.6505 13.7599 10.6505H15.7099C16.0899 10.6505 16.4099 10.8005 16.5999 11.0705C16.7699 11.3305 16.7999 11.6605 16.6799 12.0005Z" fill="#272A46"/>
</svg>
