<svg width="25" height="24" viewBox="0 0 25 24" fill="none" xmlns="http://www.w3.org/2000/svg">
<path d="M7.17 14H4.5C3.4 14 2.5 14.9 2.5 16V21C2.5 21.55 2.95 22 3.5 22H7.17C7.72 22 8.17 21.55 8.17 21V15C8.17 14.45 7.72 14 7.17 14Z" fill="#545878"/>
<path d="M13.8302 10H11.1602C10.0602 10 9.16016 10.9 9.16016 12V21C9.16016 21.55 9.61016 22 10.1602 22H14.8302C15.3802 22 15.8302 21.55 15.8302 21V12C15.8302 10.9 14.9402 10 13.8302 10Z" fill="#545878"/>
<path d="M20.5001 17H17.8301C17.2801 17 16.8301 17.45 16.8301 18V21C16.8301 21.55 17.2801 22 17.8301 22H21.5001C22.0501 22 22.5001 21.55 22.5001 21V19C22.5001 17.9 21.6001 17 20.5001 17Z" fill="#545878"/>
<path d="M15.5099 4.85047C15.8199 4.54047 15.9399 4.17047 15.8399 3.85047C15.7399 3.53047 15.4299 3.30047 14.9899 3.23047L14.0299 3.07047C13.9899 3.07047 13.8999 3.00047 13.8799 2.96047L13.3499 1.90047C12.9499 1.09047 12.0399 1.09047 11.6399 1.90047L11.1099 2.96047C11.0999 3.00047 11.0099 3.07047 10.9699 3.07047L10.0099 3.23047C9.56994 3.30047 9.26994 3.53047 9.15994 3.85047C9.05994 4.17047 9.17994 4.54047 9.48994 4.85047L10.2299 5.60047C10.2699 5.63047 10.2999 5.75047 10.2899 5.79047L10.0799 6.71047C9.91994 7.40047 10.1799 7.71047 10.3499 7.83047C10.5199 7.95047 10.8899 8.11047 11.4999 7.75047L12.3999 7.22047C12.4399 7.19047 12.5699 7.19047 12.6099 7.22047L13.4999 7.75047C13.7799 7.92047 14.0099 7.97047 14.1899 7.97047C14.3999 7.97047 14.5499 7.89047 14.6399 7.83047C14.8099 7.71047 15.0699 7.40047 14.9099 6.71047L14.6999 5.79047C14.6899 5.74047 14.7199 5.63047 14.7599 5.60047L15.5099 4.85047Z" fill="#545878"/>
</svg>
