<svg width="25" height="24" viewBox="0 0 25 24" fill="none" xmlns="http://www.w3.org/2000/svg">
<path d="M20.6 9.22043C18.79 9.22043 18.05 7.94042 18.95 6.37042C19.47 5.46042 19.16 4.30042 18.25 3.78042L16.52 2.79042C15.73 2.32042 14.71 2.60042 14.24 3.39042L14.13 3.58042C13.23 5.15042 11.75 5.15042 10.84 3.58042L10.73 3.39042C10.28 2.60042 9.26 2.32042 8.47 2.79042L6.74 3.78042C5.83 4.30042 5.52 5.47042 6.04 6.38042C6.95 7.94042 6.21 9.22043 4.4 9.22043C3.36 9.22043 2.5 10.0704 2.5 11.1204V12.8804C2.5 13.9204 3.35 14.7804 4.4 14.7804C6.21 14.7804 6.95 16.0604 6.04 17.6304C5.52 18.5404 5.83 19.7004 6.74 20.2204L8.47 21.2104C9.26 21.6804 10.28 21.4004 10.75 20.6104L10.86 20.4204C11.76 18.8504 13.24 18.8504 14.15 20.4204L14.26 20.6104C14.73 21.4004 15.75 21.6804 16.54 21.2104L18.27 20.2204C19.18 19.7004 19.49 18.5304 18.97 17.6304C18.06 16.0604 18.8 14.7804 20.61 14.7804C21.65 14.7804 22.51 13.9304 22.51 12.8804V11.1204C22.5 10.0804 21.65 9.22043 20.6 9.22043ZM12.5 15.2504C10.71 15.2504 9.25 13.7904 9.25 12.0004C9.25 10.2104 10.71 8.75042 12.5 8.75042C14.29 8.75042 15.75 10.2104 15.75 12.0004C15.75 13.7904 14.29 15.2504 12.5 15.2504Z" fill="#545878"/>
</svg>
