<svg width="30" height="31" viewBox="0 0 30 31" fill="none" xmlns="http://www.w3.org/2000/svg">
<rect y="0.5" width="30" height="30" rx="10" fill="#545878"/>
<path d="M21 22.166H9C8.72667 22.166 8.5 21.9393 8.5 21.666C8.5 21.3927 8.72667 21.166 9 21.166H21C21.2733 21.166 21.5 21.3927 21.5 21.666C21.5 21.9393 21.2733 22.166 21 22.166Z" fill="white"/>
<path d="M19.6804 9.82043C18.387 8.5271 17.1204 8.49376 15.7937 9.82043L14.987 10.6271C14.9204 10.6938 14.8937 10.8004 14.9204 10.8938C15.427 12.6604 16.8404 14.0738 18.607 14.5804C18.6337 14.5871 18.6604 14.5938 18.687 14.5938C18.7604 14.5938 18.827 14.5671 18.8804 14.5138L19.6804 13.7071C20.3404 13.0538 20.6604 12.4204 20.6604 11.7804C20.667 11.1204 20.347 10.4804 19.6804 9.82043Z" fill="white"/>
<path d="M17.4066 15.1865C17.2132 15.0932 17.0266 14.9999 16.8466 14.8932C16.6999 14.8065 16.5599 14.7132 16.4199 14.6132C16.3066 14.5399 16.1732 14.4332 16.0466 14.3265C16.0332 14.3199 15.9866 14.2799 15.9332 14.2265C15.7132 14.0399 15.4666 13.7999 15.2466 13.5332C15.2266 13.5199 15.1932 13.4732 15.1466 13.4132C15.0799 13.3332 14.9666 13.1999 14.8666 13.0465C14.7866 12.9465 14.6932 12.7999 14.6066 12.6532C14.4999 12.4732 14.4066 12.2932 14.3132 12.1065C14.1908 11.8443 13.8467 11.7664 13.6421 11.971L9.89322 15.7199C9.80655 15.8065 9.72655 15.9732 9.70655 16.0865L9.34655 18.6399C9.27989 19.0932 9.40655 19.5199 9.68655 19.8065C9.92655 20.0399 10.2599 20.1665 10.6199 20.1665C10.6999 20.1665 10.7799 20.1599 10.8599 20.1465L13.4199 19.7865C13.5399 19.7665 13.7066 19.6865 13.7866 19.5999L17.5416 15.8448C17.7421 15.6443 17.6668 15.2993 17.4066 15.1865Z" fill="white"/>
</svg>
